<?xml version="1.0" encoding="utf-8"?>
<!-- Generator: Adobe Illustrator 25.0.0, SVG Export Plug-In . SVG Version: 6.00 Build 0)  -->
<svg version="1.1" id="Layer_1" xmlns="http://www.w3.org/2000/svg" xmlns:xlink="http://www.w3.org/1999/xlink" x="0px" y="0px"
	 viewBox="0 0 70.5 89.4" style="enable-background:new 0 0 70.5 89.4;" xml:space="preserve">
<style type="text/css">
	.st0{fill:none;stroke:#000000;stroke-width:2;stroke-linecap:round;stroke-linejoin:round;stroke-miterlimit:10;}
</style>
<g>
	<g>
		<path d="M60.3,42c-0.1,0-0.2,0-0.4,0c-0.9-0.2-1.4-1.1-1.2-1.9c0.7-3.1,1.8-11.3-2.5-18.5c-2.9-4.8-7.6-8.3-13.2-9.6
			c-13.8-3.4-24.4,6.4-27.3,17.4l-0.2,1c-0.2,0.9-1.1,1.4-2,1.2c-0.9-0.2-1.4-1.1-1.2-2l0.2-1C15.9,15.9,27.9,4.8,43.8,8.6
			c6.5,1.6,12,5.5,15.3,11.2c4.9,8.3,3.6,17.4,2.9,20.9C61.7,41.5,61.1,42,60.3,42z"/>
	</g>
	<g>
		<path d="M33.3,89.4c-0.5,0-1-0.2-1.3-0.7c-0.5-0.7-0.4-1.8,0.4-2.3c3.2-2.4,6.2-5.1,8.7-8.2c0.3-0.4,0.9-0.6,1.4-0.6
			c0.5,0,1,0.4,1.3,0.8c0.9,1.7,2,3.2,3.2,4.6c0.6,0.7,0.5,1.7-0.2,2.3C46,86,45,85.9,44.4,85.2c-0.8-1-1.6-2-2.3-3.1
			c-2.4,2.6-5,4.9-7.8,7C33.9,89.3,33.6,89.4,33.3,89.4z"/>
	</g>
	<g>
		<path d="M21.8,87.3c-0.6,0-1.2-0.3-1.5-0.9c-0.4-0.8-0.1-1.8,0.7-2.2c12.7-6.4,18.3-15.8,22.4-24.9c0.3-0.7,1.1-1.1,1.8-0.9
			c0.8,0.2,1.3,0.8,1.3,1.6c0,0.1,0.2,11.4,6.7,18.6c0.6,0.7,0.6,1.7-0.1,2.3c-0.7,0.6-1.7,0.6-2.3-0.1c-4.2-4.7-6.1-10.7-6.9-15
			c-4.1,7.8-10.3,15.8-21.4,21.4C22.3,87.2,22,87.3,21.8,87.3z"/>
	</g>
	<g>
		<path d="M67.1,57.2c-0.8,0-1.5-0.6-1.6-1.5c-0.4-4-0.1-9.1,0.8-13.8l0-0.2c0.9-4.1,2.4-14.6-3.4-24.3C59,10.8,52.6,6.1,44.8,4.2
			C26.2-0.3,12,12.6,8.1,27.2l-0.3,1.5C7,32.7,5.4,36.6,3,40c-0.5,0.7-1.5,0.9-2.3,0.4c-0.7-0.5-0.9-1.5-0.4-2.3
			c2.1-3.1,3.6-6.5,4.3-10.2L5,26.4C9.2,10.3,24.9-4,45.6,1c8.6,2.1,15.8,7.3,20.2,14.8c6.4,10.7,4.8,22.2,3.8,26.7l0,0.1
			c-0.9,4.4-1.2,9.1-0.8,12.8c0.1,0.9-0.6,1.7-1.5,1.8C67.2,57.2,67.2,57.2,67.1,57.2z"/>
	</g>
	<g>
		<path d="M62.3,67.9c-0.5,0-1.1-0.3-1.4-0.8c-5.3-8.5-3.1-22.6-2.3-26.7l0-0.2c0.7-3.2,1.9-11.4-2.4-18.7
			c-2.9-4.8-7.6-8.3-13.2-9.6c-13.8-3.4-24.4,6.4-27.3,17.4l-0.2,1C13.4,40.8,7.4,47.8,2.7,51.8C2,52.4,1,52.3,0.4,51.6
			c-0.6-0.7-0.5-1.7,0.2-2.3c4.3-3.6,9.8-10,11.7-19.9l0.2-1.1C15.9,15.9,27.9,4.8,43.8,8.6c6.5,1.6,12,5.5,15.3,11.2
			c5,8.4,3.6,17.5,2.8,21.1l0,0.2c-0.5,2.7-3,16.7,1.8,24.4c0.5,0.8,0.2,1.8-0.5,2.3C62.9,67.8,62.6,67.9,62.3,67.9z"/>
	</g>
	<g>
		<path d="M57.8,75c-0.4,0-0.9-0.2-1.2-0.5c-9.4-10.4-7.1-28.4-5.7-35.6l0-0.2c0.4-1.9,1.5-8-1.5-13.2c-1.8-3.1-4.7-5.1-8.3-6
			c-9.1-2.2-15.8,4.2-17.8,11.7l-0.1,0.4c-3.3,16.8-14.7,26-19.5,29.2c-0.8,0.5-1.8,0.3-2.3-0.4c-0.5-0.8-0.3-1.8,0.4-2.3
			C6.3,55.2,16.9,46.6,20,31l0.1-0.6c2.4-9.1,10.7-16.8,21.8-14.1c4.5,1.1,8.1,3.7,10.4,7.5c3.6,6,2.5,12.8,1.9,15.5l0,0.2
			c-1,5.3-3.8,23.2,4.9,32.8c0.6,0.7,0.6,1.7-0.1,2.3C58.6,74.9,58.2,75,57.8,75z"/>
	</g>
	<g>
		<path d="M16,81.3c-0.6,0-1.2-0.4-1.5-1c-0.4-0.8,0-1.8,0.8-2.2c23.6-10.4,27.9-40.7,28-41c0-0.1,0-0.1,0-0.2c0,0,1.2-4.5-0.6-7.5
			c-0.7-1.2-1.9-2-3.4-2.4c-6.3-1.5-8.3,5.8-8.4,6.1C27,53,13.4,63.9,7.7,67.6c-0.8,0.5-1.8,0.3-2.3-0.5c-0.5-0.8-0.3-1.8,0.5-2.3
			c5.3-3.5,18.2-13.8,21.8-32.4c1-3.8,4.9-10.4,12.4-8.6c2.5,0.6,4.3,1.9,5.5,3.9c2.3,3.9,1.2,9.1,1,9.9c-0.3,2.3-5,32.6-29.9,43.5
			C16.4,81.3,16.2,81.3,16,81.3z"/>
	</g>
	<g>
		<path class="st0" d="M92.9,53.9"/>
	</g>
	<g>
		<path d="M9.4,75c-0.6,0-1.2-0.4-1.5-1c-0.4-0.8,0-1.8,0.8-2.2c21.7-9.5,27-37.3,27-37.6c0.2-0.9,1-1.5,1.9-1.3
			c0.9,0.2,1.5,1,1.3,1.9c-0.2,1.2-5.6,29.8-28.9,40C9.8,75,9.6,75,9.4,75z"/>
	</g>
</g>
</svg>
